<svg xmlns="http://www.w3.org/2000/svg" viewBox="0 0 250 98"><defs><style>.cls-1{fill:#f59495;}.cls-2{fill:#f26e67;}.cls-3{fill:#fff;}</style></defs><title>logo</title><g id="Capa_2" data-name="Capa 2"><g id="Capa_1-2" data-name="Capa 1"><path class="cls-1" d="M9.7,26.89c7.46-4.7,19.56-4.15,24.52,3.87,1.89,4.45-4.11,6.21-6.62,2.89-9.1-7.37-22.78,1.13-21,12.5.83,10.18,15.78,14.72,21.7,6.34h0c1.41-2.92,5.89-1.62,6.55,1.2-.34,6.91-9.32,9.94-15.27,10C-.44,64.87-7.45,36.23,9.7,26.89Z"/><path class="cls-1" d="M43.68,20c3.85,0,3.7,4.46,3.54,7.18,4.25-3,11.12-6,15.8-2.52A3.11,3.11,0,0,1,61.7,29.7c-8.52.9-14.4,3.67-14.48,13.31V61a3.43,3.43,0,0,1-3.54,3.47,3.39,3.39,0,0,1-3.46-3.31V23.36A3.44,3.44,0,0,1,43.68,20Z"/><path class="cls-2" d="M80.06,56.7c12.29-1.11,8.16-6.24,12.59-10.86,6.87-2.43,5.66,7.66,2.55,10.8-8.4,10.84-27.82,8.88-32.47-4.54-6.18-14.2,6.79-30.46,22-27.93,9.79,1.7,20.39,9.19,6.6,15.61-4.32,1.68-8.59,7.61-13.2,5.45-5.65-5.54,8.66-9.5,12-12.79C70.63,21.62,56.82,54,80.06,56.7Z"/><path class="cls-2" d="M121.71,23.86C133.92,22,146.4,40.31,133.65,38.5c-5.28-7.65-12.22-10.56-20.68-5.29-16.15,15,11.49,37.11,19.75,13,7.64-3.74,4.79,10.63,5.29,14-.55,5.37-7.4,3.91-6.76-1.26C103.8,79.56,86.14,26.26,121.71,23.86Z"/><path class="cls-2" d="M140.48,27.2c-.1-3,3.31-3.63,5.64-3.34v-10c.65-3.21-2.13-14,3.11-13.87,4.73.2,3.1,6,3.34,9.14,0,3.52,0,11.39,0,14.8,2.43-.26,5.87,0,5.77,3.28.1,3.15-3.23,3.58-5.64,3.3,0,6.67,0,20.24,0,26.66,6-.43,5.18,7.45-.5,6.44-1.25,0-2.91.2-3.94-.68-4.29-3.61-1.23-26.25-2.1-32.55-2.27.24-5.75-.19-5.68-3.19Z"/><path class="cls-2" d="M164.56,11.21c-.32-4.29,7.14-4.26,6.83,0C171.66,15.48,164.34,15.44,164.56,11.21Zm-.31,15.6c-.29-4.43,7.35-4.49,7,0v34c.18,1.91-1.69,3.31-3.48,3.26s-3.69-1.34-3.53-3.26Z"/><path class="cls-2" d="M192.79,63.6c-4.24-1.11-5-6.51-7.18-9.87-4-8.49-8.43-16.88-12.36-25.37-1.51-3.52,3.58-6.2,5.85-3.26C184.22,34,188,43.5,192.85,52.53c5.59-9.12,8.74-20.26,15.44-28.4,2.76-1.39,6.22,1.87,4.6,4.64-3,5.06-9.87,18.93-12.7,24.34-2.14,3.65-3.18,8.93-7.4,10.49Z"/><path class="cls-2" d="M232.82,23.86c12-2,24.64,16.43,11.81,14.64-5.25-7.65-12.21-10.56-20.66-5.29-16.15,14.93,11.45,37.07,19.72,13,7.64-3.72,4.79,10.63,5.29,14-.57,5.36-7.4,3.92-6.76-1.26C214.39,79.61,197.35,25.69,232.82,23.86Z"/><path class="cls-3" d="M13.22,85.25a3.49,3.49,0,0,0-.31-1.66c-.1-1.22,1.07-.59,1.08.23,2.3-5.32,6.61-6.6,4.59.81,1.27,6,11.36,1,14.31-1.54A.16.16,0,0,0,33,83c2.6,2.14-19.92,11.82-14.91-2.55C11.05,83.14,16.32,93,12.61,98,8.48,98.36,12.59,87.49,13.22,85.25Zm-.85,11.59c1.14-3,1-6.51,1-9.58-.7,3-2.37,6.89-1.24,9.72Z"/><path class="cls-3" d="M37.33,84.58c-8,8.43-3.42-8.34-3.72,1.58,2.32-.08,3.1-2.72,4.38-4,.75.07.28,1.28.41,1.8.26,7.92,10.38,1.71,13.59-1,.41-.1.82.24.58.66-3.59,3.08-14,9.22-15.06,1.06Z"/><path class="cls-3" d="M56.93,86.2c-3,8-8.55,2.1-.69-.66,1.33-4-3.5-.07-3.69,1.76C50,83.42,53.94,74,56.16,69.74c8.62-7.42,1.73,12.53-3.57,13.87-.05.52,0,1.27,0,1.8.89-2.18,5.42-4.07,4.88-.27,1.23-.68,16-3.65,14.1-1.45A44.21,44.21,0,0,0,56.93,86.2Zm-4.19-3.69c3.42-2.92,8.19-9.07,6-13.55-4.37,2-4.9,9.24-6,13.55Zm3,4.17c-.89.45-3.6,1.69-2.55,2.84C54.45,89.12,55,87.62,55.77,86.68Z"/><path class="cls-3" d="M72,83.53c2.22,12.18,22.85-4.8,17.32.83C82.24,90,68.69,91.72,71.14,78.68,76.91,57.08,84.42,73.35,72,83.53Zm-.13-.94c3.35-3.14,7.12-8.93,5.71-13.51-4.72,1.87-6,8.86-5.71,13.51Z"/><path class="cls-3" d="M106.05,83.67c-4.28,3.16-17.83,9.71-16.27-.66.71-.44.8.52.71,1,.11,8.23,11.44,1,15-1.09.48-.12,1,.32.54.72ZM95,78c-.9-.14-2.88,2-3.13.83.1-1,4.55-2.64,3.13-.83Z"/><path class="cls-3" d="M126.44,83.34a31.48,31.48,0,0,1-16.54,5.43c-7.48.54-6-8.16.19-8.54,4.29-.33.8,5.83-1.06,4.17.33-.9,1.86-1.2,2.24-2.15,0-2.85-4.62,0-5.22,1.55-2,6.4,8.84,3.75,12.09,2.53,1.66,0,8.06-4.59,8.3-3Z"/><path class="cls-3" d="M141.89,83.67c-4.14,3.12-18.46,9.8-16.13-.74.71-.2.56.71.57,1.11.1,8.23,11.44,1,15-1.09.48-.12,1,.32.54.72ZM130.81,78c-.91-.13-2.86,2-3.13.83.11-1,4.55-2.65,3.13-.83Z"/><path class="cls-3" d="M152.94,78.45c-3.32,0-6.62.18-9.93.41a5.31,5.31,0,0,1-.71,1.25C140.92,95.56,151.43,91,158.46,83c1.77-.62-.05,1.66-.66,2-9.48,9.06-17.8,9.22-16.51-6.12-3.2.34-6.62.54-9.63,1.73-2.87-1.59,8.61-2.42,9.77-2.56.88-8.56,6.25-9.68,1.75-.14,3.76-.34,7.58-.45,11.38-.42.3-.05.73,0,.69.44s-.46.42-.79.41S153.16,78.43,152.94,78.45Zm-10.26-.75a23.6,23.6,0,0,0,1.82-5.51C143.39,73.74,143.08,75.92,142.68,77.7Z"/><path class="cls-3" d="M164.44,83.17c-1.81,2.81-8.15,5-5.5-.49,2.22-3.49,10.21-5.12,6.55,1.16,3.07,7,12.38.83,17.11-.87-1.47,3.56-15.87,7.92-17.77,1.7-1.18,1-1.3-.47-.27-1Zm.83-.63c1.85-6.78-11.17,4-4.26,2.43,1.12-.16,4.11-4.91,4.23-2.43Z"/><path class="cls-3" d="M199.22,83c3.5,1.2-17.33,12.66-15.12,1.82-5.68-2.67,3-8.2-.58-1.47.87.67,1.77,1.15,1.41,2.43C185.35,92.77,197,86.13,199.22,83Zm-16.34-.69a4.13,4.13,0,0,0,.58-1.41,1.2,1.2,0,0,0-.58,1.41Z"/><path class="cls-3" d="M215.44,83.67c-4.05,3.29-19,9.59-15.95-.76.77.08.3,1.26.43,1.76C201,92,211.33,84.92,215,83c.49-.12,1,.37.48.72Zm-11.06-6.14A5.84,5.84,0,0,0,202,78.65a.41.41,0,0,1-.71-.29c0-1,4.7-2.68,3.11-.83Z"/><path class="cls-3" d="M220.58,83.17c-1.66,2.82-8.22,4.8-5.51-.49,2.22-3.49,10.22-5.12,6.55,1.16,3.08,7,12.38.84,17.12-.87-1.41,3.51-15.92,8-17.68,1.7-1.18,1-1.3-.47-.27-1Zm.83-.7c1.86-6.76-11.31,4-4.37,2.44,1.3-.25,3.84-4.83,4.37-2.44Z"/></g></g></svg>